<?xml version="1.0" encoding="UTF-8" ?>
<!DOCTYPE svg PUBLIC "-//W3C//DTD SVG 1.1//EN" "http://www.w3.org/Graphics/SVG/1.1/DTD/svg11.dtd">
<svg width="230pt" height="244pt" viewBox="0 0 1993 2106" version="1.1" xmlns="http://www.w3.org/2000/svg">
<path fill="#f16905" opacity="1.00" d=" M 708.30 0.00 L 1068.77 0.00 C 1074.72 11.87 1078.90 24.54 1084.41 36.62 C 1160.63 218.66 1237.19 400.57 1313.22 582.69 C 1264.05 582.15 1214.65 583.44 1165.97 590.91 C 1094.55 600.99 1024.94 623.55 961.25 657.42 C 936.82 599.93 913.38 542.00 888.60 484.67 C 843.03 593.44 797.54 702.24 752.04 811.04 C 729.02 865.39 706.93 920.14 683.18 974.18 C 655.28 1043.77 625.54 1112.62 596.87 1181.90 C 563.47 1261.54 530.24 1341.25 496.84 1420.89 C 488.53 1439.37 479.86 1457.72 472.69 1476.69 C 463.57 1501.79 452.53 1526.11 442.64 1550.89 C 314.61 1551.05 186.58 1551.12 58.55 1550.86 C 64.82 1534.02 72.32 1517.69 79.06 1501.05 C 171.26 1281.25 263.38 1061.42 355.58 841.61 C 473.10 561.06 590.95 280.63 708.30 0.00 Z" />
<path fill="#f16905" opacity="1.00" d=" M 1598.02 1262.00 C 1638.66 1358.20 1678.96 1454.54 1719.19 1550.91 C 1591.14 1551.11 1463.09 1550.96 1335.04 1550.99 C 1304.37 1477.36 1273.31 1403.89 1242.82 1330.19 C 1300.56 1333.30 1358.69 1332.22 1415.99 1323.92 C 1459.76 1317.13 1503.16 1306.41 1543.95 1288.92 C 1562.61 1281.27 1580.41 1271.78 1598.02 1262.00 Z" />
<path fill="#85cbe6" opacity="1.00" d=" M 1877.06 572.14 C 1922.87 551.06 1964.68 519.50 1993.00 477.34 L 1993.00 480.32 C 1967.30 535.30 1937.56 588.89 1899.00 636.00 C 1863.50 679.75 1820.38 717.61 1771.13 745.18 C 1741.68 761.34 1710.34 773.97 1678.01 783.06 C 1628.18 796.91 1576.43 802.48 1524.84 803.73 C 1377.30 806.30 1230.35 776.11 1082.82 790.76 C 1024.13 796.76 965.67 810.90 912.97 837.95 C 837.10 875.53 776.21 938.26 731.04 1009.05 C 718.97 1027.37 708.64 1046.73 697.53 1065.63 C 703.55 1035.92 715.23 1007.71 726.84 979.83 C 755.99 913.95 795.44 852.41 844.94 799.95 C 896.19 745.92 958.32 701.95 1027.05 673.08 C 1078.72 650.99 1133.79 637.32 1189.49 630.43 C 1228.14 625.94 1267.12 624.93 1306.00 624.97 C 1402.29 626.74 1498.64 630.13 1594.93 626.69 C 1647.35 624.50 1699.75 619.81 1751.40 610.40 C 1794.49 602.30 1837.18 590.58 1877.06 572.14 Z" />
<path fill="#28a7e1" opacity="1.00" d=" M 1873.59 742.60 C 1879.85 735.31 1885.26 727.35 1891.30 719.87 C 1883.70 740.38 1873.18 759.70 1862.97 779.01 C 1841.49 818.18 1816.93 855.85 1787.57 889.60 C 1753.83 929.31 1713.28 963.54 1667.41 988.45 C 1632.71 1007.78 1595.06 1021.51 1556.43 1030.51 C 1491.66 1045.45 1424.73 1047.43 1358.55 1045.67 C 1297.45 1043.31 1236.53 1037.89 1175.55 1033.60 C 1095.69 1028.11 1014.70 1024.99 935.56 1039.43 C 878.84 1049.73 823.50 1069.59 774.91 1100.92 C 703.22 1146.64 648.12 1214.35 607.11 1288.07 C 603.26 1294.93 599.80 1302.06 595.21 1308.49 C 599.70 1287.07 607.16 1266.44 615.07 1246.09 C 636.58 1191.17 665.46 1139.09 701.05 1092.04 C 742.51 1037.81 792.66 989.77 851.00 954.01 C 922.70 909.02 1005.15 882.55 1089.03 872.99 C 1141.43 866.39 1194.32 868.16 1247.00 868.01 C 1286.00 868.96 1324.99 869.96 1364.00 870.23 C 1410.98 872.23 1458.02 870.32 1505.00 868.80 C 1562.50 865.81 1620.14 860.43 1676.33 847.33 C 1718.58 837.96 1759.96 823.74 1798.02 802.99 C 1826.21 787.10 1852.31 767.08 1873.59 742.60 Z" />
<path fill="#0e6eb8" opacity="1.00" d=" M 1777.88 977.91 C 1781.95 972.86 1785.66 967.51 1790.03 962.70 C 1774.34 999.25 1755.43 1034.47 1733.96 1067.97 C 1702.07 1116.98 1663.84 1162.63 1616.96 1197.97 C 1586.63 1220.96 1553.26 1240.08 1517.71 1253.73 C 1472.97 1271.49 1425.38 1280.91 1377.59 1285.46 C 1259.25 1296.45 1141.09 1278.58 1022.96 1273.40 C 952.72 1270.14 881.46 1270.84 812.58 1286.53 C 768.87 1296.19 726.54 1312.36 687.78 1334.80 C 615.40 1376.88 558.36 1441.48 515.91 1512.93 C 508.08 1525.42 501.56 1538.67 493.98 1551.31 C 497.42 1530.35 505.41 1510.53 512.75 1490.71 C 551.16 1392.54 612.65 1302.47 694.74 1235.73 C 738.56 1199.91 788.35 1171.53 841.13 1151.17 C 892.59 1131.04 947.12 1119.48 1002.04 1114.14 C 1033.59 1110.76 1065.34 1111.22 1097.00 1110.02 C 1145.32 1111.34 1193.67 1111.30 1242.00 1113.00 C 1299.65 1112.53 1357.37 1114.48 1414.95 1110.78 C 1496.97 1106.25 1580.00 1095.54 1656.70 1064.70 C 1702.81 1045.40 1746.94 1017.86 1777.88 977.91 Z" />
<path fill="#0e6eb8" opacity="1.00" d=" M 768.41 1634.59 C 776.54 1634.00 785.66 1635.00 791.09 1641.91 C 796.36 1652.12 793.18 1664.40 787.90 1673.95 C 783.79 1682.19 774.80 1686.93 765.88 1687.80 C 757.38 1688.35 747.74 1689.14 740.71 1683.30 C 735.63 1679.25 735.83 1671.82 736.05 1666.03 C 737.30 1655.62 741.90 1644.86 751.04 1639.06 C 756.21 1635.75 762.40 1634.84 768.41 1634.59 Z" />
<path fill="#0e6eb8" opacity="1.00" d=" M 562.84 1647.95 C 579.58 1645.51 596.43 1643.79 613.13 1641.02 C 606.13 1672.01 598.95 1702.96 591.98 1733.96 C 600.15 1726.75 609.08 1719.84 619.63 1716.60 C 631.67 1712.98 644.47 1711.56 656.98 1713.02 C 669.65 1715.01 682.13 1721.91 688.95 1733.04 C 697.17 1744.18 696.89 1759.16 694.28 1772.16 C 685.42 1810.73 676.60 1849.31 667.88 1887.92 C 651.84 1888.05 635.81 1888.06 619.77 1887.95 C 626.51 1853.65 635.42 1819.79 642.60 1785.58 C 644.95 1777.87 643.12 1769.19 637.95 1763.05 C 633.32 1755.88 624.06 1754.01 616.13 1754.23 C 597.33 1756.35 581.47 1772.22 578.87 1790.90 C 571.76 1823.29 564.16 1855.57 556.88 1887.92 C 540.58 1888.05 524.29 1888.06 508.00 1887.97 C 526.45 1808.00 544.37 1727.90 562.84 1647.95 Z" />
<path fill="#0e6eb8" opacity="1.00" d=" M 1170.18 1648.31 C 1186.79 1646.50 1203.32 1644.00 1219.91 1641.97 C 1201.35 1723.98 1182.63 1805.96 1163.87 1887.92 C 1147.82 1888.05 1131.78 1888.06 1115.75 1887.95 C 1133.34 1807.95 1151.93 1728.16 1170.18 1648.31 Z" />
<path fill="#0e6eb8" opacity="1.00" d=" M 144.11 1644.04 C 161.32 1643.94 178.53 1643.92 195.75 1644.04 C 198.88 1680.41 203.55 1716.63 207.15 1752.96 C 212.20 1797.94 216.57 1843.00 221.94 1887.94 C 204.69 1888.07 187.44 1888.02 170.20 1887.96 C 168.70 1864.38 166.37 1840.87 164.62 1817.31 C 142.19 1816.72 119.75 1816.95 97.32 1817.12 C 84.84 1841.09 70.90 1864.26 57.88 1887.95 C 40.57 1888.02 23.26 1888.07 5.94 1887.97 C 51.48 1806.38 97.98 1725.31 144.11 1644.04 M 158.89 1694.04 C 154.05 1708.50 146.08 1721.57 139.07 1735.03 C 130.80 1751.08 121.93 1766.83 113.68 1782.91 C 130.09 1783.12 146.50 1783.00 162.91 1782.96 C 161.55 1753.33 156.73 1723.73 158.89 1694.04 Z" />
<path fill="#0e6eb8" opacity="1.00" d=" M 728.02 1715.99 C 744.72 1713.36 761.56 1711.75 778.24 1709.01 C 764.96 1768.69 750.93 1828.20 737.73 1887.90 C 721.43 1888.03 705.13 1888.08 688.83 1887.95 C 701.83 1830.62 714.85 1773.29 728.02 1715.99 Z" />
<path fill="#0e6eb8" opacity="1.00" d=" M 462.85 1710.65 C 480.92 1708.70 499.90 1711.08 515.91 1720.13 C 520.00 1722.73 524.90 1724.85 527.77 1728.99 C 520.89 1742.15 512.04 1754.27 504.66 1767.19 C 493.90 1758.30 481.71 1748.93 467.00 1749.20 C 445.73 1749.23 427.34 1766.70 423.04 1787.00 C 419.63 1802.25 413.51 1818.15 416.98 1833.96 C 420.87 1847.53 436.75 1850.93 448.98 1849.96 C 466.02 1847.12 481.29 1838.38 494.85 1828.00 C 495.91 1841.28 496.78 1854.58 497.91 1867.88 C 487.20 1874.35 476.16 1880.67 463.98 1883.90 C 443.29 1889.78 420.42 1890.96 400.14 1882.87 C 381.80 1875.13 367.15 1857.27 365.86 1836.99 C 363.80 1825.63 366.91 1814.34 369.35 1803.33 C 372.23 1791.06 374.26 1778.34 380.03 1767.00 C 395.19 1735.45 427.88 1713.06 462.85 1710.65 Z" />
<path fill="#0e6eb8" opacity="1.00" d=" M 1043.43 1711.60 C 1064.62 1708.32 1088.33 1709.85 1106.29 1722.71 C 1123.55 1734.29 1127.04 1758.40 1119.65 1776.72 C 1111.56 1799.82 1087.53 1813.95 1063.98 1816.09 C 1043.23 1817.87 1022.36 1816.68 1001.57 1817.00 C 1001.60 1822.34 1001.16 1827.92 1002.85 1833.11 C 1006.41 1840.20 1012.67 1846.96 1020.99 1847.92 C 1034.51 1851.57 1048.77 1849.38 1061.68 1844.55 C 1075.88 1839.87 1088.79 1832.15 1101.15 1823.87 C 1097.75 1838.35 1093.92 1852.74 1090.12 1867.14 C 1089.01 1872.33 1083.01 1873.68 1079.03 1876.05 C 1056.43 1886.19 1031.22 1890.64 1006.53 1888.58 C 985.32 1886.40 964.99 1873.14 957.05 1852.92 C 952.84 1840.66 951.81 1827.27 954.51 1814.57 C 957.57 1800.55 959.97 1786.14 966.09 1773.05 C 979.59 1741.66 1009.05 1716.28 1043.43 1711.60 M 1021.27 1761.28 C 1014.80 1767.22 1011.94 1775.67 1009.56 1783.85 C 1025.08 1783.93 1040.67 1784.65 1056.18 1783.31 C 1061.94 1782.20 1068.52 1781.35 1072.35 1776.34 C 1078.92 1769.71 1081.64 1755.24 1071.37 1750.61 C 1054.57 1744.35 1034.38 1749.18 1021.27 1761.28 Z" />
<path fill="#0e6eb8" opacity="1.00" d=" M 271.56 1717.51 C 288.09 1715.20 304.70 1713.57 321.20 1711.02 C 319.55 1720.80 317.21 1730.44 315.05 1740.13 C 324.27 1729.08 335.27 1719.01 349.07 1714.16 C 359.16 1711.04 370.33 1710.77 380.44 1714.02 C 375.82 1729.03 371.35 1744.09 366.10 1758.91 C 348.42 1752.10 327.09 1757.43 314.28 1771.26 C 307.86 1779.18 304.07 1788.84 301.56 1798.64 C 294.81 1828.44 288.15 1858.27 281.21 1888.03 C 265.08 1888.03 248.96 1888.03 232.85 1887.96 C 245.67 1831.12 258.84 1774.37 271.56 1717.51 Z" />
<path fill="#0e6eb8" opacity="1.00" d=" M 870.68 1714.57 C 886.32 1710.47 903.96 1708.72 918.96 1716.04 C 933.93 1723.25 943.86 1739.42 944.08 1755.98 C 944.93 1772.45 939.23 1788.14 936.04 1804.08 C 932.16 1820.15 929.82 1837.28 920.13 1851.16 C 905.65 1872.36 881.42 1888.69 855.02 1888.03 C 838.92 1889.25 821.81 1884.54 810.92 1872.05 C 804.79 1898.34 798.91 1924.69 792.88 1951.01 C 776.21 1953.59 759.41 1955.19 742.78 1957.99 C 750.21 1922.17 758.95 1886.63 766.89 1850.91 C 776.96 1807.01 786.79 1763.05 797.00 1719.18 C 813.34 1717.08 829.46 1713.50 845.85 1711.77 C 844.93 1717.81 844.04 1723.88 843.00 1729.92 C 851.45 1723.58 860.24 1717.13 870.68 1714.57 M 864.42 1747.51 C 852.92 1748.51 842.03 1755.51 836.97 1765.97 C 830.88 1776.35 829.84 1788.53 826.95 1799.99 C 824.91 1810.42 820.73 1820.75 822.45 1831.58 C 823.83 1840.90 831.27 1848.81 840.60 1850.51 C 852.39 1851.88 865.57 1849.02 873.63 1839.65 C 884.41 1827.06 885.49 1809.81 889.45 1794.42 C 891.73 1783.16 896.25 1771.66 892.92 1760.11 C 889.45 1748.40 874.81 1745.91 864.42 1747.51 Z" />
<path fill="#0e6eb8" opacity="1.00" d=" M 1230.34 1726.83 C 1257.24 1713.86 1287.71 1708.56 1317.43 1711.53 C 1336.20 1714.15 1353.77 1726.51 1360.49 1744.59 C 1365.32 1757.43 1364.70 1771.63 1361.90 1784.88 C 1353.74 1819.20 1346.31 1853.69 1338.20 1888.03 C 1323.48 1888.04 1308.78 1888.01 1294.09 1887.99 C 1294.72 1883.32 1295.39 1878.69 1296.01 1874.05 C 1285.20 1880.82 1273.47 1887.02 1260.59 1888.45 C 1246.08 1889.71 1230.30 1890.23 1217.26 1882.74 C 1205.89 1875.92 1196.40 1864.49 1195.26 1850.86 C 1193.20 1827.70 1204.85 1804.07 1224.02 1791.04 C 1242.17 1776.98 1266.49 1772.37 1288.87 1776.21 C 1298.63 1777.94 1307.46 1782.94 1315.20 1789.01 C 1317.46 1780.24 1320.14 1771.03 1318.15 1761.94 C 1315.12 1751.32 1303.09 1746.82 1293.03 1746.93 C 1271.92 1746.32 1251.82 1754.90 1234.35 1766.04 C 1233.10 1752.96 1231.45 1739.91 1230.34 1726.83 M 1271.43 1809.47 C 1267.23 1809.85 1263.08 1810.93 1259.10 1812.21 C 1246.87 1816.64 1239.04 1831.37 1243.10 1843.91 C 1246.11 1851.25 1254.91 1853.36 1262.02 1853.95 C 1273.33 1854.01 1285.98 1854.58 1295.70 1847.67 C 1300.79 1843.84 1304.88 1838.39 1306.09 1832.04 C 1308.10 1825.56 1307.26 1816.84 1300.84 1813.17 C 1291.99 1808.17 1281.18 1808.76 1271.43 1809.47 Z" />
<path fill="#0e6eb8" opacity="1.00" d=" M 1648.43 1711.55 C 1669.66 1709.26 1693.55 1710.93 1710.46 1725.51 C 1727.95 1739.75 1734.96 1764.16 1730.92 1785.97 C 1727.31 1805.03 1723.21 1824.76 1712.02 1841.03 C 1694.13 1867.27 1664.68 1886.46 1632.56 1888.45 C 1608.92 1891.30 1582.11 1884.52 1567.28 1864.74 C 1556.79 1851.47 1553.61 1833.82 1555.29 1817.30 C 1558.57 1798.44 1562.30 1779.08 1572.50 1762.56 C 1589.25 1736.16 1616.96 1715.52 1648.43 1711.55 M 1646.40 1749.46 C 1633.94 1750.85 1622.88 1759.16 1617.12 1770.17 C 1609.93 1783.61 1608.01 1798.93 1604.50 1813.57 C 1602.09 1822.90 1602.49 1833.70 1608.26 1841.76 C 1613.28 1848.20 1621.72 1849.60 1629.30 1850.77 C 1642.31 1851.22 1656.31 1847.28 1664.72 1836.74 C 1676.37 1822.14 1678.27 1802.96 1682.47 1785.42 C 1684.12 1775.44 1684.72 1762.95 1676.32 1755.67 C 1668.49 1748.16 1656.45 1748.31 1646.40 1749.46 Z" />
<path fill="#0e6eb8" opacity="1.00" d=" M 1453.43 1712.51 C 1472.05 1710.02 1493.07 1714.74 1504.68 1730.63 C 1506.64 1724.47 1508.54 1718.32 1510.31 1712.12 C 1526.20 1711.93 1542.09 1711.89 1558.00 1712.04 C 1547.77 1756.53 1537.72 1801.07 1527.52 1845.58 C 1523.86 1861.11 1520.83 1876.83 1516.12 1892.11 C 1509.72 1909.87 1499.91 1927.05 1484.76 1938.77 C 1471.37 1948.75 1455.23 1955.08 1438.56 1956.44 C 1423.72 1957.17 1408.39 1958.59 1394.01 1953.99 C 1384.58 1951.85 1375.99 1947.20 1367.93 1942.04 C 1373.33 1927.58 1378.30 1912.97 1384.03 1898.64 C 1394.16 1906.13 1404.51 1914.00 1417.08 1916.82 C 1426.08 1918.71 1435.62 1919.97 1444.68 1917.65 C 1455.41 1914.65 1463.65 1905.45 1466.86 1894.96 C 1469.28 1886.69 1471.00 1878.25 1472.91 1869.87 C 1463.92 1875.95 1454.80 1882.58 1443.97 1884.84 C 1426.56 1889.36 1406.12 1890.25 1391.09 1878.87 C 1374.48 1867.50 1369.22 1845.04 1373.20 1826.13 C 1376.27 1811.41 1380.02 1796.84 1383.13 1782.13 C 1385.42 1770.20 1389.64 1758.53 1396.41 1748.40 C 1409.66 1729.68 1430.03 1714.53 1453.43 1712.51 M 1464.41 1748.45 C 1449.58 1749.86 1437.77 1761.90 1433.78 1775.86 C 1429.79 1790.82 1426.41 1805.98 1423.21 1821.14 C 1421.22 1829.51 1422.67 1839.71 1429.33 1845.65 C 1444.71 1854.63 1467.23 1850.39 1477.20 1835.20 C 1485.25 1824.01 1486.51 1809.89 1489.90 1796.91 C 1492.10 1785.21 1497.34 1772.93 1492.91 1761.12 C 1489.47 1749.39 1474.86 1746.74 1464.41 1748.45 Z" />
<path fill="#0e6eb8" opacity="1.00" d=" M 951.19 2009.19 C 962.88 1999.12 981.81 2001.49 992.65 2011.73 C 990.14 2014.24 987.66 2016.80 985.10 2019.27 C 978.86 2014.54 970.45 2012.30 962.82 2014.75 C 957.11 2016.81 954.36 2024.81 958.37 2029.67 C 965.61 2035.46 975.77 2033.22 983.77 2037.29 C 988.02 2039.35 992.65 2042.55 993.39 2047.64 C 994.15 2054.19 995.48 2062.21 990.67 2067.71 C 984.27 2076.54 972.06 2077.48 962.12 2076.86 C 954.25 2076.21 947.67 2071.57 941.46 2067.16 C 944.16 2064.37 946.90 2061.67 949.66 2058.97 C 954.95 2062.26 960.37 2066.43 967.04 2065.97 C 972.43 2066.71 979.22 2065.02 981.72 2059.69 C 984.00 2055.24 982.24 2048.48 976.95 2047.20 C 966.63 2043.59 952.66 2045.60 946.66 2034.34 C 943.44 2026.11 943.61 2015.05 951.19 2009.19 Z" />
<path fill="#0e6eb8" opacity="1.00" d=" M 1035.79 2020.86 C 1039.36 2006.28 1057.14 1999.39 1070.60 2004.43 C 1080.26 2007.30 1085.33 2016.76 1087.40 2025.93 C 1083.39 2025.88 1079.40 2025.86 1075.43 2025.85 C 1073.44 2022.25 1071.26 2018.57 1068.05 2015.96 C 1061.15 2011.39 1050.22 2014.74 1047.88 2022.87 C 1046.28 2030.33 1045.93 2038.06 1046.21 2045.70 C 1047.05 2050.67 1046.45 2056.74 1050.30 2060.72 C 1054.19 2066.03 1062.50 2068.02 1067.97 2063.95 C 1071.71 2061.84 1073.55 2057.81 1075.38 2054.14 C 1079.36 2054.05 1083.35 2054.02 1087.37 2054.05 C 1085.27 2064.05 1078.86 2074.34 1068.04 2076.09 C 1054.88 2080.12 1038.62 2072.23 1035.68 2058.35 C 1034.53 2045.91 1034.22 2033.24 1035.79 2020.86 Z" />
<path fill="#0e6eb8" opacity="1.00" d=" M 1121.42 2003.45 C 1133.92 2000.82 1149.03 2008.19 1151.45 2021.43 C 1153.47 2033.89 1154.26 2046.97 1151.39 2059.38 C 1147.27 2075.71 1125.40 2081.91 1112.03 2072.96 C 1104.39 2069.20 1101.14 2060.53 1100.48 2052.58 C 1099.86 2041.70 1098.83 2030.47 1101.82 2019.87 C 1104.26 2010.99 1112.62 2004.92 1121.42 2003.45 M 1123.43 2014.47 C 1119.44 2014.91 1115.84 2017.58 1114.27 2021.28 C 1110.83 2029.41 1111.85 2038.39 1112.06 2046.99 C 1112.61 2052.53 1112.49 2059.71 1118.05 2062.94 C 1124.30 2068.52 1136.21 2066.23 1138.97 2058.01 C 1142.50 2047.14 1141.48 2035.25 1139.74 2024.17 C 1138.47 2016.76 1130.40 2012.56 1123.43 2014.47 Z" />
<path fill="#0e6eb8" opacity="1.00" d=" M 1322.45 2003.56 C 1333.92 2000.90 1346.79 2006.25 1351.94 2017.07 C 1354.84 2026.05 1354.08 2035.68 1354.20 2045.03 C 1354.01 2053.32 1353.84 2063.14 1347.22 2069.21 C 1335.00 2082.77 1308.22 2078.12 1303.16 2059.88 C 1301.06 2048.74 1301.79 2037.22 1302.10 2025.99 C 1302.57 2014.87 1311.54 2005.10 1322.45 2003.56 M 1324.44 2014.46 C 1319.46 2015.74 1315.22 2020.27 1314.50 2025.41 C 1313.51 2035.07 1313.50 2044.88 1314.52 2054.59 C 1315.59 2064.84 1330.20 2070.09 1337.24 2062.24 C 1343.78 2056.82 1341.50 2047.33 1342.21 2040.00 C 1341.60 2033.48 1343.11 2026.21 1339.65 2020.34 C 1336.36 2015.67 1330.16 2012.44 1324.44 2014.46 Z" />
<path fill="#0e6eb8" opacity="1.00" d=" M 1615.44 2003.51 C 1628.18 2000.52 1642.55 2008.66 1645.33 2021.65 C 1646.58 2033.48 1646.44 2045.48 1645.39 2057.36 C 1643.93 2066.48 1636.24 2074.56 1627.03 2076.05 C 1615.16 2079.55 1600.59 2073.94 1596.05 2061.98 C 1592.64 2049.77 1593.69 2036.84 1594.48 2024.38 C 1595.15 2013.51 1604.80 2004.51 1615.44 2003.51 M 1616.44 2014.46 C 1610.88 2015.88 1606.55 2021.30 1606.14 2027.01 C 1605.69 2036.63 1605.16 2046.46 1607.02 2056.01 C 1608.73 2065.60 1622.93 2069.70 1629.32 2062.32 C 1635.66 2056.72 1633.57 2047.38 1634.21 2040.00 C 1633.59 2033.48 1635.11 2026.21 1631.65 2020.34 C 1628.36 2015.67 1622.16 2012.44 1616.44 2014.46 Z" />
<path fill="#0e6eb8" opacity="1.00" d=" M 2.01 2003.99 C 14.26 2004.32 26.80 2002.78 38.89 2005.10 C 55.72 2010.05 57.50 2035.39 43.46 2044.49 C 34.75 2049.92 23.70 2047.21 14.03 2048.14 C 14.05 2057.40 13.96 2066.69 13.98 2076.00 C 9.99 2075.97 6.00 2075.97 2.00 2076.00 C 1.98 2051.99 1.97 2027.99 2.01 2003.99 M 13.98 2013.76 C 14.05 2021.53 14.03 2029.29 13.97 2037.11 C 20.70 2036.90 27.50 2037.21 34.16 2036.20 C 41.64 2033.62 43.47 2021.78 36.75 2017.27 C 30.32 2012.31 21.42 2014.72 13.98 2013.76 Z" />
<path fill="#0e6eb8" opacity="1.00" d=" M 67.01 2004.00 C 70.99 2003.95 74.98 2003.95 78.97 2004.00 C 78.98 2013.99 79.04 2024.00 79.04 2034.04 C 88.35 2033.93 97.66 2033.93 106.97 2034.02 C 106.97 2023.99 107.04 2013.99 107.04 2004.00 C 111.02 2003.95 115.01 2003.95 119.00 2004.00 C 119.02 2027.99 119.03 2051.99 118.99 2076.00 C 115.00 2075.97 111.02 2075.97 107.03 2076.00 C 107.01 2065.63 106.98 2055.29 106.97 2044.97 C 97.65 2045.00 88.34 2045.02 79.03 2044.99 C 79.01 2055.30 78.98 2065.64 78.97 2075.99 C 74.98 2075.96 70.99 2075.96 67.00 2076.00 C 66.98 2051.99 66.97 2027.99 67.01 2004.00 Z" />
<path fill="#0e6eb8" opacity="1.00" d=" M 139.01 2004.00 C 143.00 2003.95 147.00 2003.95 151.00 2004.00 C 151.02 2027.99 151.03 2051.99 150.99 2076.00 C 146.99 2075.97 143.00 2075.97 139.00 2076.00 C 138.98 2051.99 138.97 2027.99 139.01 2004.00 Z" />
<path fill="#0e6eb8" opacity="1.00" d=" M 171.01 2004.00 C 175.00 2003.95 179.00 2003.95 183.00 2004.00 C 183.00 2024.31 182.99 2044.63 183.01 2064.96 C 194.67 2064.98 206.34 2064.99 218.00 2065.04 C 218.00 2067.77 218.00 2073.24 218.00 2075.97 C 202.33 2076.04 186.67 2076.02 171.00 2075.98 C 170.98 2051.98 170.97 2027.98 171.01 2004.00 Z" />
<path fill="#0e6eb8" opacity="1.00" d=" M 232.01 2004.00 C 236.00 2003.95 240.00 2003.95 244.00 2004.00 C 244.02 2027.99 244.03 2051.99 243.99 2076.00 C 239.99 2075.97 235.99 2075.97 232.00 2076.00 C 231.98 2051.99 231.97 2027.99 232.01 2004.00 Z" />
<path fill="#0e6eb8" opacity="1.00" d=" M 264.01 2003.99 C 276.03 2004.15 288.19 2003.10 300.13 2004.86 C 314.40 2008.52 319.50 2027.72 310.91 2038.96 C 303.39 2050.91 287.80 2047.38 276.03 2048.14 C 276.04 2057.40 275.95 2066.69 275.98 2076.00 C 271.98 2075.97 267.99 2075.97 264.00 2076.00 C 263.98 2051.99 263.97 2027.99 264.01 2003.99 M 275.98 2013.76 C 276.05 2021.53 276.03 2029.29 275.97 2037.11 C 282.70 2036.91 289.50 2037.20 296.18 2036.22 C 303.87 2033.66 305.39 2021.80 298.75 2017.27 C 292.32 2012.31 283.42 2014.72 275.98 2013.76 Z" />
<path fill="#0e6eb8" opacity="1.00" d=" M 329.01 2003.99 C 341.33 2004.19 353.81 2003.09 366.05 2004.92 C 381.96 2009.20 385.64 2032.35 373.75 2042.73 C 364.60 2050.40 351.94 2047.34 341.03 2048.10 C 341.04 2057.37 340.95 2066.68 340.98 2076.00 C 336.98 2075.97 332.99 2075.97 329.00 2076.00 C 328.98 2051.98 328.97 2027.98 329.01 2003.99 M 340.98 2013.77 C 341.05 2021.52 341.03 2029.27 340.97 2037.08 C 347.99 2036.80 355.21 2037.71 362.06 2036.02 C 370.79 2033.15 370.69 2019.95 363.02 2015.98 C 356.03 2013.21 348.30 2014.21 340.98 2013.77 Z" />
<path fill="#0e6eb8" opacity="1.00" d=" M 395.01 2004.00 C 399.00 2003.95 402.99 2003.95 407.00 2004.00 C 407.02 2027.99 407.03 2051.99 406.99 2076.00 C 402.99 2075.97 398.99 2075.97 395.00 2076.00 C 394.98 2051.99 394.97 2027.99 395.01 2004.00 Z" />
<path fill="#0e6eb8" opacity="1.00" d=" M 427.01 2003.97 C 430.94 2003.95 434.87 2003.99 438.81 2004.09 C 448.81 2020.05 459.41 2035.63 469.73 2051.39 C 470.05 2035.58 470.06 2019.79 470.00 2004.00 C 473.99 2003.95 477.99 2003.95 482.00 2004.00 C 482.01 2028.00 482.03 2052.01 481.99 2076.02 C 479.26 2076.00 473.81 2075.96 471.09 2075.94 C 460.45 2059.84 449.99 2043.63 439.29 2027.57 C 438.93 2043.70 438.94 2059.84 439.00 2076.00 C 434.99 2075.97 430.99 2075.97 427.00 2076.00 C 426.98 2051.98 426.97 2027.97 427.01 2003.97 Z" />
<path fill="#0e6eb8" opacity="1.00" d=" M 502.01 2004.02 C 517.67 2003.94 533.33 2003.95 549.00 2004.02 C 549.00 2006.51 549.00 2011.47 549.00 2013.96 C 537.33 2013.98 525.66 2013.98 514.00 2014.04 C 513.99 2020.65 513.99 2027.29 514.00 2033.95 C 524.00 2033.94 533.99 2034.01 544.00 2034.05 C 544.00 2036.78 544.00 2042.23 544.00 2044.96 C 533.99 2044.95 523.99 2045.02 514.00 2045.04 C 513.99 2051.65 513.99 2058.29 514.00 2064.96 C 525.66 2064.98 537.33 2064.98 549.00 2065.04 C 549.00 2067.77 549.00 2073.24 549.00 2075.97 C 533.33 2076.04 517.66 2076.02 502.00 2075.98 C 501.98 2051.98 501.97 2028.00 502.01 2004.02 Z" />
<path fill="#0e6eb8" opacity="1.00" d=" M 592.01 2004.02 C 607.67 2003.94 623.33 2003.95 639.00 2004.02 C 639.00 2006.51 639.00 2011.47 639.00 2013.96 C 627.32 2013.98 615.65 2013.98 603.99 2014.04 C 604.01 2020.98 604.01 2027.95 603.99 2034.96 C 613.99 2034.95 623.99 2035.02 634.00 2035.04 C 634.00 2037.77 634.00 2043.23 634.00 2045.96 C 624.01 2045.95 614.03 2046.02 604.05 2046.04 C 604.03 2056.00 603.96 2065.99 603.95 2076.00 C 599.96 2075.97 595.97 2075.97 592.00 2076.00 C 591.98 2051.99 591.97 2028.00 592.01 2004.02 Z" />
<path fill="#0e6eb8" opacity="1.00" d=" M 654.01 2004.02 C 669.33 2003.94 684.66 2003.95 700.00 2004.03 C 700.00 2006.51 700.00 2011.48 700.00 2013.96 C 688.66 2013.97 677.33 2013.99 666.00 2014.02 C 665.99 2020.64 665.99 2027.28 666.00 2033.95 C 675.65 2033.96 685.32 2033.98 695.00 2034.03 C 695.00 2036.76 695.00 2042.22 695.00 2044.95 C 685.32 2044.96 675.66 2045.00 666.00 2045.02 C 665.99 2051.64 665.99 2058.29 666.00 2064.96 C 677.32 2064.97 688.66 2064.98 700.00 2065.02 C 700.00 2067.76 700.00 2073.23 700.00 2075.97 C 684.67 2076.03 669.34 2076.02 654.01 2075.97 C 653.97 2051.98 653.97 2027.99 654.01 2004.02 Z" />
<path fill="#0e6eb8" opacity="1.00" d=" M 717.01 2003.99 C 729.02 2004.16 741.19 2003.08 753.12 2004.88 C 764.38 2007.32 770.29 2020.55 767.02 2031.00 C 765.60 2037.55 759.97 2042.10 754.21 2044.88 C 759.68 2055.14 764.68 2065.68 770.34 2075.86 C 765.53 2075.85 760.79 2075.98 756.01 2076.02 C 751.13 2065.93 745.86 2056.05 740.98 2045.98 C 736.98 2045.93 733.00 2045.94 729.04 2046.00 C 729.01 2055.98 728.95 2065.98 728.96 2076.00 C 724.96 2075.97 720.97 2075.97 717.00 2076.00 C 716.98 2051.98 716.97 2027.99 717.01 2003.99 M 728.99 2013.75 C 729.02 2021.19 729.01 2028.65 728.97 2036.14 C 735.35 2035.88 741.80 2036.09 748.15 2035.19 C 755.41 2033.81 758.28 2023.81 753.63 2018.35 C 746.79 2012.47 737.18 2014.47 728.99 2013.75 Z" />
<path fill="#0e6eb8" opacity="1.00" d=" M 785.01 2004.01 C 796.89 2004.03 808.81 2003.40 820.68 2004.44 C 829.54 2006.34 836.50 2014.85 835.98 2024.04 C 837.60 2033.31 830.54 2041.51 822.34 2044.72 C 827.60 2055.15 833.37 2065.31 838.34 2075.90 C 833.59 2075.86 828.93 2075.94 824.23 2075.93 C 819.69 2065.84 814.37 2056.16 809.70 2046.16 C 805.45 2046.02 801.25 2046.03 797.03 2045.96 C 797.02 2055.95 796.95 2065.96 796.96 2076.00 C 792.96 2075.97 788.97 2075.97 785.00 2076.00 C 784.98 2051.99 784.97 2028.00 785.01 2004.01 M 796.99 2013.77 C 797.02 2021.19 797.01 2028.62 796.97 2036.10 C 804.86 2035.34 814.04 2038.06 820.78 2032.78 C 826.29 2028.50 824.99 2018.13 818.33 2015.67 C 811.46 2013.36 804.08 2014.14 796.99 2013.77 Z" />
<path fill="#0e6eb8" opacity="1.00" d=" M 853.01 2004.00 C 856.99 2003.95 860.98 2003.95 865.00 2004.00 C 865.01 2027.99 865.02 2051.99 864.99 2076.00 C 860.98 2075.97 856.98 2075.97 853.00 2076.00 C 852.98 2051.99 852.97 2027.99 853.01 2004.00 Z" />
<path fill="#0e6eb8" opacity="1.00" d=" M 885.01 2004.02 C 900.67 2003.94 916.33 2003.95 932.00 2004.02 C 932.00 2006.51 932.00 2011.47 932.00 2013.96 C 920.32 2013.98 908.66 2013.98 897.00 2014.04 C 896.98 2020.65 896.98 2027.29 897.00 2033.95 C 906.99 2033.94 916.99 2034.01 927.00 2034.05 C 927.00 2036.78 927.00 2042.23 927.00 2044.96 C 916.99 2044.95 906.99 2045.02 897.00 2045.04 C 896.98 2051.65 896.98 2058.29 897.00 2064.96 C 908.66 2064.98 920.32 2064.98 932.00 2065.04 C 932.00 2067.77 932.00 2073.24 932.00 2075.97 C 916.33 2076.04 900.66 2076.02 885.00 2075.98 C 884.98 2051.98 884.97 2028.00 885.01 2004.02 Z" />
<path fill="#0e6eb8" opacity="1.00" d=" M 1170.01 2004.01 C 1182.12 2004.12 1194.32 2003.22 1206.40 2004.60 C 1220.89 2007.85 1225.94 2027.92 1216.74 2038.74 C 1214.11 2041.36 1210.82 2043.13 1207.47 2044.65 C 1213.01 2054.93 1218.41 2065.32 1223.56 2075.83 C 1218.73 2075.82 1214.01 2075.94 1209.23 2075.94 C 1204.70 2065.85 1199.37 2056.16 1194.70 2046.16 C 1190.43 2046.02 1186.25 2046.03 1182.03 2045.96 C 1182.01 2055.95 1181.95 2065.96 1181.96 2076.00 C 1177.95 2075.97 1173.97 2075.97 1170.00 2076.00 C 1169.98 2051.99 1169.97 2028.00 1170.01 2004.01 M 1181.99 2013.73 C 1182.02 2021.16 1182.01 2028.61 1181.97 2036.11 C 1188.70 2035.90 1195.49 2036.21 1202.18 2035.22 C 1209.81 2032.88 1211.76 2021.29 1205.27 2016.73 C 1198.13 2012.96 1189.70 2014.36 1181.99 2013.73 Z" />
<path fill="#0e6eb8" opacity="1.00" d=" M 1239.01 2003.99 C 1251.02 2004.15 1263.18 2003.11 1275.13 2004.85 C 1291.69 2009.33 1294.80 2033.68 1281.69 2043.66 C 1272.73 2049.95 1261.22 2047.41 1251.03 2048.14 C 1251.03 2057.39 1250.94 2066.69 1250.98 2076.00 C 1246.96 2075.97 1242.97 2075.97 1239.00 2076.00 C 1238.98 2051.99 1238.97 2027.99 1239.01 2003.99 M 1250.98 2013.76 C 1251.04 2021.53 1251.01 2029.29 1250.97 2037.11 C 1257.69 2036.90 1264.48 2037.21 1271.16 2036.20 C 1278.63 2033.62 1280.46 2021.78 1273.75 2017.27 C 1267.33 2012.31 1258.40 2014.72 1250.98 2013.76 Z" />
<path fill="#0e6eb8" opacity="1.00" d=" M 1372.01 2003.99 C 1384.28 2004.22 1396.76 2002.97 1408.94 2005.04 C 1419.55 2007.67 1424.36 2019.67 1422.67 2029.68 C 1421.11 2036.62 1415.53 2041.63 1409.45 2044.82 C 1414.56 2055.25 1419.78 2065.65 1425.35 2075.86 C 1420.51 2075.85 1415.79 2075.98 1411.01 2076.02 C 1406.13 2065.93 1400.86 2056.05 1395.98 2045.98 C 1391.97 2045.93 1387.99 2045.94 1384.04 2046.00 C 1384.01 2055.98 1383.95 2065.98 1383.96 2076.00 C 1379.95 2075.97 1375.96 2075.97 1372.00 2076.00 C 1371.97 2051.98 1371.97 2027.98 1372.01 2003.99 M 1383.99 2013.77 C 1384.01 2021.20 1384.00 2028.65 1383.97 2036.14 C 1390.82 2035.63 1398.00 2036.62 1404.69 2034.70 C 1412.48 2032.05 1413.03 2019.89 1405.88 2016.10 C 1399.01 2013.09 1391.23 2014.26 1383.99 2013.77 Z" />
<path fill="#0e6eb8" opacity="1.00" d=" M 1458.41 2004.11 C 1461.31 2005.02 1467.52 2001.83 1468.56 2006.38 C 1477.34 2029.47 1485.58 2052.79 1494.22 2075.95 C 1489.82 2075.84 1485.56 2075.93 1481.23 2075.93 C 1479.63 2071.28 1478.07 2066.68 1476.54 2062.07 C 1467.42 2062.07 1458.33 2062.02 1449.25 2062.03 C 1447.64 2066.60 1446.08 2071.21 1444.56 2075.85 C 1440.20 2075.79 1435.95 2075.91 1431.65 2075.98 C 1437.94 2057.13 1445.41 2038.70 1451.93 2019.94 C 1454.03 2014.63 1455.30 2008.94 1458.41 2004.11 M 1452.80 2051.93 C 1459.56 2051.94 1466.34 2051.95 1473.14 2051.96 C 1469.98 2042.53 1467.14 2032.96 1463.26 2023.81 C 1458.20 2032.51 1456.62 2042.69 1452.80 2051.93 Z" />
<path fill="#0e6eb8" opacity="1.00" d=" M 1499.00 2004.04 C 1515.99 2003.95 1532.99 2003.94 1550.00 2004.03 C 1550.00 2006.50 1550.00 2011.44 1550.00 2013.91 C 1543.63 2013.90 1537.33 2013.99 1531.01 2014.05 C 1530.98 2034.69 1531.00 2055.34 1530.99 2076.00 C 1526.96 2075.97 1522.97 2075.97 1519.01 2076.00 C 1518.98 2055.34 1519.01 2034.69 1518.99 2014.06 C 1512.31 2013.99 1505.65 2013.94 1499.01 2013.92 C 1499.01 2011.45 1499.00 2006.51 1499.00 2004.04 Z" />
<path fill="#0e6eb8" opacity="1.00" d=" M 1564.01 2004.00 C 1567.98 2003.95 1571.97 2003.95 1576.00 2004.00 C 1576.01 2027.99 1576.02 2051.99 1575.99 2076.00 C 1571.96 2075.97 1567.97 2075.97 1564.00 2076.00 C 1563.97 2051.99 1563.97 2027.99 1564.01 2004.00 Z" />
<path fill="#0e6eb8" opacity="1.00" d=" M 1664.02 2003.99 C 1666.75 2003.99 1672.23 2004.00 1674.97 2004.01 C 1685.85 2019.91 1696.08 2036.27 1706.85 2052.27 C 1707.00 2036.17 1707.04 2020.08 1707.00 2004.00 C 1710.97 2003.95 1714.96 2003.95 1719.00 2004.00 C 1719.01 2028.01 1719.02 2052.02 1718.99 2076.04 C 1715.04 2075.96 1711.12 2075.90 1707.24 2075.86 C 1697.25 2059.58 1686.41 2043.84 1676.11 2027.77 C 1676.00 2043.83 1675.94 2059.91 1676.00 2076.00 C 1671.97 2075.97 1667.97 2075.97 1664.00 2076.00 C 1663.98 2051.98 1663.96 2027.98 1664.02 2003.99 Z" />
</svg>